<svg xmlns="http://www.w3.org/2000/svg" xmlns:xlink="http://www.w3.org/1999/xlink" viewBox="0 0 474 175.67"><defs><style>.cls-1{fill:url(#linear-gradient);}.cls-2{fill:url(#linear-gradient-2);}.cls-3{fill:url(#linear-gradient-3);}.cls-4{fill:url(#linear-gradient-4);}.cls-5{fill:url(#linear-gradient-5);}.cls-6{fill:url(#linear-gradient-6);}.cls-7{fill:url(#linear-gradient-7);}.cls-8{fill:url(#linear-gradient-8);}.cls-9{fill:url(#linear-gradient-9);}.cls-10{fill:url(#linear-gradient-10);}.cls-11{fill:url(#linear-gradient-11);}.cls-12{fill:url(#linear-gradient-12);}.cls-13{fill:url(#linear-gradient-13);}.cls-14{fill:url(#linear-gradient-14);}.cls-15{fill:url(#linear-gradient-15);}.cls-16{fill:url(#linear-gradient-16);}.cls-17{fill:url(#linear-gradient-17);}.cls-18{fill:url(#linear-gradient-18);}.cls-19{fill:url(#linear-gradient-19);}.cls-20{fill:url(#linear-gradient-20);}.cls-21{fill:url(#linear-gradient-21);}.cls-22{fill:url(#linear-gradient-22);}.cls-23{fill:url(#linear-gradient-23);}.cls-24{fill:url(#linear-gradient-24);}.cls-25{fill:url(#linear-gradient-25);}.cls-26{fill:url(#linear-gradient-26);}.cls-27{fill:url(#linear-gradient-27);}.cls-28{fill:url(#linear-gradient-28);}.cls-29{fill:url(#linear-gradient-29);}.cls-30{fill:url(#linear-gradient-30);}.cls-31{fill:url(#linear-gradient-31);}.cls-32{fill:url(#linear-gradient-32);}.cls-33{fill:url(#linear-gradient-33);}.cls-34{fill:url(#linear-gradient-34);}.cls-35{fill:url(#linear-gradient-35);}.cls-36{fill:url(#linear-gradient-36);}.cls-37{fill:url(#linear-gradient-37);}.cls-38{fill:url(#linear-gradient-38);}.cls-39{fill:#122d1c;}</style><linearGradient id="linear-gradient" x1="358.82" y1="283.17" x2="358.82" y2="14.78" gradientUnits="userSpaceOnUse"><stop offset="0" stop-color="#63964a"/><stop offset="1" stop-color="#122d1c"/></linearGradient><linearGradient id="linear-gradient-2" x1="405.88" y1="283.17" x2="405.88" y2="14.78" xlink:href="#linear-gradient"/><linearGradient id="linear-gradient-3" x1="422.99" y1="283.17" x2="422.99" y2="14.78" xlink:href="#linear-gradient"/><linearGradient id="linear-gradient-4" x1="341.97" y1="283.17" x2="341.97" y2="14.78" xlink:href="#linear-gradient"/><linearGradient id="linear-gradient-5" x1="323.21" y1="283.17" x2="323.21" y2="14.78" xlink:href="#linear-gradient"/><linearGradient id="linear-gradient-6" x1="336.87" y1="283.17" x2="336.87" y2="14.78" xlink:href="#linear-gradient"/><linearGradient id="linear-gradient-7" x1="441.57" y1="283.17" x2="441.57" y2="14.78" xlink:href="#linear-gradient"/><linearGradient id="linear-gradient-8" x1="448.27" y1="283.17" x2="448.27" y2="14.78" xlink:href="#linear-gradient"/><linearGradient id="linear-gradient-9" x1="316.59" y1="283.17" x2="316.59" y2="14.78" xlink:href="#linear-gradient"/><linearGradient id="linear-gradient-10" x1="427.7" y1="283.17" x2="427.7" y2="14.78" xlink:href="#linear-gradient"/><linearGradient id="linear-gradient-11" x1="444.07" y1="283.17" x2="444.07" y2="14.78" xlink:href="#linear-gradient"/><linearGradient id="linear-gradient-12" x1="320.69" y1="283.17" x2="320.69" y2="14.78" xlink:href="#linear-gradient"/><linearGradient id="linear-gradient-13" x1="453.74" y1="283.17" x2="453.74" y2="14.78" xlink:href="#linear-gradient"/><linearGradient id="linear-gradient-14" x1="321.23" y1="283.17" x2="321.23" y2="14.78" xlink:href="#linear-gradient"/><linearGradient id="linear-gradient-15" x1="311.09" y1="283.17" x2="311.09" y2="14.78" xlink:href="#linear-gradient"/><linearGradient id="linear-gradient-16" x1="443.59" y1="283.17" x2="443.59" y2="14.78" xlink:href="#linear-gradient"/><linearGradient id="linear-gradient-17" x1="462.56" y1="283.17" x2="462.56" y2="14.78" xlink:href="#linear-gradient"/><linearGradient id="linear-gradient-18" x1="328.48" y1="283.17" x2="328.48" y2="14.78" xlink:href="#linear-gradient"/><linearGradient id="linear-gradient-19" x1="302.28" y1="283.17" x2="302.28" y2="14.78" xlink:href="#linear-gradient"/><linearGradient id="linear-gradient-20" x1="461.85" y1="283.17" x2="461.85" y2="14.78" xlink:href="#linear-gradient"/><linearGradient id="linear-gradient-21" x1="436.29" y1="283.17" x2="436.29" y2="14.78" xlink:href="#linear-gradient"/><linearGradient id="linear-gradient-22" x1="303.12" y1="283.17" x2="303.12" y2="14.78" xlink:href="#linear-gradient"/><linearGradient id="linear-gradient-23" x1="461.57" y1="283.17" x2="461.57" y2="14.78" xlink:href="#linear-gradient"/><linearGradient id="linear-gradient-24" x1="447.63" y1="283.17" x2="447.63" y2="14.78" xlink:href="#linear-gradient"/><linearGradient id="linear-gradient-25" x1="336.24" y1="283.17" x2="336.24" y2="14.78" xlink:href="#linear-gradient"/><linearGradient id="linear-gradient-26" x1="428.48" y1="283.17" x2="428.48" y2="14.78" xlink:href="#linear-gradient"/><linearGradient id="linear-gradient-27" x1="303.21" y1="283.17" x2="303.21" y2="14.78" xlink:href="#linear-gradient"/><linearGradient id="linear-gradient-28" x1="317.24" y1="283.17" x2="317.24" y2="14.78" xlink:href="#linear-gradient"/><linearGradient id="linear-gradient-29" x1="370.04" y1="283.17" x2="370.04" y2="14.78" xlink:href="#linear-gradient"/><linearGradient id="linear-gradient-30" x1="394.69" y1="283.17" x2="394.69" y2="14.78" xlink:href="#linear-gradient"/><linearGradient id="linear-gradient-31" x1="381.8" y1="283.17" x2="381.8" y2="14.78" xlink:href="#linear-gradient"/><linearGradient id="linear-gradient-32" x1="389.12" y1="283.17" x2="389.12" y2="14.78" xlink:href="#linear-gradient"/><linearGradient id="linear-gradient-33" x1="389.13" y1="283.17" x2="389.13" y2="14.78" xlink:href="#linear-gradient"/><linearGradient id="linear-gradient-34" x1="389.14" y1="283.17" x2="389.14" y2="14.78" xlink:href="#linear-gradient"/><linearGradient id="linear-gradient-35" x1="389.17" y1="283.17" x2="389.17" y2="14.78" xlink:href="#linear-gradient"/><linearGradient id="linear-gradient-36" x1="389.14" y1="283.17" x2="389.14" y2="14.78" xlink:href="#linear-gradient"/><linearGradient id="linear-gradient-37" x1="389.12" y1="283.17" x2="389.12" y2="14.78" xlink:href="#linear-gradient"/><linearGradient id="linear-gradient-38" x1="380.89" y1="283.17" x2="380.89" y2="14.78" xlink:href="#linear-gradient"/></defs><g id="Layer_2" data-name="Layer 2"><g id="Layer_1-2" data-name="Layer 1"><path class="cls-1" d="M367.19,162.77c3.41-.92,6.58-2.47,8.65-5.44a5,5,0,0,0,.77-3.24,13.87,13.87,0,0,0-3.85-7.4c-5.16-5.65-11.71-9.25-18.73-12.13-1.74-.71-3.62-1.11-5.43-1.65l-.24.5a36.33,36.33,0,0,0,7.45,10.46c4.37,4.25,9.83,6.81,15.27,9.38,1.55.74,3.12,1.45,4.68,2.17l-.12.44c-1.9-.13-3.8-.35-5.69-.36-4.48,0-9-.36-13.43.16-5.57.65-10.43,3.41-15,6.51a3.12,3.12,0,0,0-.5.63,14,14,0,0,0,1.45.52A51.1,51.1,0,0,0,367.19,162.77Z"/><path class="cls-2" d="M423.72,163c0-.16,0-.33,0-.5-5-3.46-10.31-6.49-16.52-7-5-.37-10.09.11-15.13.21-1,0-1.91,0-2.87,0a8.25,8.25,0,0,1,2.49-1.55c5.39-2.44,10.76-4.9,15.39-8.63A36.12,36.12,0,0,0,416.63,133c-1.14.2-1.87.26-2.55.46a53,53,0,0,0-20.28,11.38,18.11,18.11,0,0,0-5.5,8.38,4.53,4.53,0,0,0,1,4.69,17.54,17.54,0,0,0,8.93,5A54.32,54.32,0,0,0,418,164.16,56.16,56.16,0,0,0,423.72,163Z"/><path class="cls-3" d="M440.88,153.14c-7.51-5.95-26.77-7.12-35.78-2.17C411.29,157.09,431.42,158.31,440.88,153.14Z"/><path class="cls-4" d="M352.61,154.75a22.59,22.59,0,0,0,7.4-3.9c-12.53-4-24.51-4.62-36,2.09l-.06.54c2.46.57,4.89,1.25,7.37,1.7C338.43,156.49,345.55,157,352.61,154.75Z"/><path class="cls-5" d="M332.08,145.25a23.6,23.6,0,0,0,9.05-2c-8-7-28.56-10.43-35.83-5.85,3.76,1.69,7.22,3.42,10.82,4.82A39.07,39.07,0,0,0,332.08,145.25Z"/><path class="cls-6" d="M329.45,121.69c2.21,6.42,5,12.55,10.06,17.41a22.65,22.65,0,0,0,7,4.69c.43-9.89-10.55-27-19.37-30C328,116.54,328.57,119.16,329.45,121.69Z"/><path class="cls-7" d="M459.47,137.24c-8.33-4.35-30.1-.55-35.81,6.22,2,.51,3.89,1.12,5.81,1.45,6.63,1.12,12.95-.3,19.06-2.7C452.18,140.78,455.68,139,459.47,137.24Z"/><path class="cls-8" d="M433,135c14.14-.69,22.49-9.58,30.65-19.27C453.9,115.13,437.11,125.68,433,135Z"/><path class="cls-9" d="M302.71,117.49c2.15,2.36,4.2,4.82,6.52,7,4.46,4.21,9.4,7.77,15.49,9.44a16.13,16.13,0,0,0,7.23.71c-7.64-10.44-17-17.78-30.71-19.15C301.87,116.36,302.24,117,302.71,117.49Z"/><path class="cls-10" d="M418.26,143.58c7.81-1.71,19.14-19.48,19-29.72C428.17,117.7,417.12,135,418.26,143.58Z"/><path class="cls-11" d="M442.13,120.76c8-10.38,6.68-21.75,4.43-33.6C440.15,93.88,437.64,113.19,442.13,120.76Z"/><path class="cls-12" d="M322.75,120.63c4.33-8.25,1.57-28.55-4.38-33.14-1.81,5.46-2.41,15.93-1.26,21.4A24.14,24.14,0,0,0,322.75,120.63Z"/><path class="cls-13" d="M457.39,52.51A46.89,46.89,0,0,0,453.86,37c-5.86,9.84-4.25,22.84-.23,30.54A23.42,23.42,0,0,0,457.39,52.51Z"/><path class="cls-14" d="M319,51.86c6.19-9,8.56-21.44,4.61-30.26-.81,1.54-1.62,2.9-2.27,4.33-2.7,6-4.86,12.19-4.31,18.92A18.24,18.24,0,0,0,319,51.86Z"/><path class="cls-15" d="M311.41,67.69c4.06-10.37,5-20.4-.37-30.6-2.88,5.34-4.46,16.63-3.22,22.32C308.45,62.29,309.23,65.11,311.41,67.69Z"/><path class="cls-16" d="M445.83,51.67c4.46-8,.77-21.29-4.76-29.89C437.3,29,440.16,46.67,445.83,51.67Z"/><path class="cls-17" d="M456.52,80.65c6.37-2.57,12.85-17.43,12.08-27.9C460.26,58.53,455.89,70.78,456.52,80.65Z"/><path class="cls-18" d="M317.74,62c8.77-2,20.57-13.94,21.47-21.56C330,42.8,318,54.8,317.74,62Z"/><path class="cls-19" d="M308.48,80.75c-.25-11.07-3.27-20.74-12.18-28.12C294.77,61.77,301.54,77.52,308.48,80.75Z"/><path class="cls-20" d="M474,95.3c-8.28.31-22.49,11.64-24.3,19.25C461.51,112.61,467.89,104.4,474,95.3Z"/><path class="cls-21" d="M425.56,40.42C426.37,48,440.09,61.64,447,61.83,446.06,52.65,434,43.54,425.56,40.42Z"/><path class="cls-22" d="M299.94,106.78a26.51,26.51,0,0,0,12.14,7.14c1,.24,1.94.36,3.06.56-2.54-8.17-17-19.5-24.05-19.06.12.25.2.48.32.7A50.59,50.59,0,0,0,299.94,106.78Z"/><path class="cls-23" d="M453.78,100.56c9.07-3.51,14.66-17.3,15.59-26C459.25,80,454,92.72,453.78,100.56Z"/><path class="cls-24" d="M453.1,92c1.95-11.61-4-20.17-10.91-28.73C440.13,71.89,446.27,88,453.1,92Z"/><path class="cls-25" d="M345.46,19c-8.8,6.33-17,12.83-18.47,24.65C335.26,40.81,346.16,26.23,345.46,19Z"/><path class="cls-26" d="M437.79,43.52c-1.4-11.68-9.63-18.2-18.61-24.64C419.69,27.9,430.25,41.81,437.79,43.52Z"/><path class="cls-27" d="M311,100.66c.81-8-8.1-22.84-15.61-26a1.18,1.18,0,0,0-.09.43c1.27,7.23,3.72,14,8.35,19.87A18.84,18.84,0,0,0,311,100.66Z"/><path class="cls-28" d="M311.74,92c7.31-5.44,13.66-22.38,10.67-28.62C315.77,71.88,309.65,80.36,311.74,92Z"/><path class="cls-29" d="M364.06,175.66a3.84,3.84,0,0,0,1.79-.46,49.73,49.73,0,0,0,6-4.13,16.51,16.51,0,0,0,5.8-9.36c-1.36,1-2.62,2-3.92,2.92-2.81,2-5.71,3.93-8.45,6a10.86,10.86,0,0,0-2.48,3.09C362.05,175,362.65,175.75,364.06,175.66Z"/><path class="cls-30" d="M396,173.56a15.81,15.81,0,0,0,4.79,2.05c1.28.33,1.93-.65,1.23-1.77a13.42,13.42,0,0,0-2.93-3.5c-3.87-2.93-7.88-5.66-12.06-8.62a27.81,27.81,0,0,0,.93,2.68A22,22,0,0,0,396,173.56Z"/><path class="cls-31" d="M341.63,116.75a64,64,0,0,0,18.54,1.85c9.62-.53,19.22-1.39,28.8-2.34,9.08-.91,18.14-1.89,27.28-1.45l5.71.27a70.23,70.23,0,0,0-9.29-1.81c-1.38-.18-1.8-.66-1.78-2,.05-5,0-10,0-15a2.18,2.18,0,0,0-1.11-2.15c-1.46-.9-2.83-1.92-4.24-2.88l-6.09-4.1-.49.2v25.39l-.62,0a16.15,16.15,0,0,1-.2-1.81q-.14-19.65-.21-39.3a2.61,2.61,0,0,0-1.23-2.43c-2.3-1.59-4.51-3.31-6.77-5C387,62.09,384,60,381,57.84l-.52.11v56.24h-.89c-.24-18.37,0-36.75-.35-55.41a11.75,11.75,0,0,0-1.15.88C373.72,64.1,369.32,68.52,365,73a4.16,4.16,0,0,0-1.08,2.54c-.15,7.57-.21,15.14-.26,22.71,0,5.42,0,10.85-.06,16.27a8.71,8.71,0,0,1-.33,1.58l-.77-.11V86.42c-3.75,2.6-7.09,5-10.46,7.24a2.61,2.61,0,0,0-1.26,2.42c0,6.2,0,12.39,0,18.58,0,2.12,0,2.1-2.1,2.09C346.22,116.74,343.77,116.75,341.63,116.75Zm40.26-57.13c1,.61,1.68,1,2.32,1.47,3.88,2.84,7.71,5.75,11.64,8.54,1.19.84,1,1.94,1,3,0,5.53-.05,11.06-.09,16.58,0,7.32-.11,14.64-.09,22,0,1.55-.59,1.9-2.25,1.4.64-2.07-.72-2.92-2.2-3.85-2.79-1.75-5.5-3.64-8.5-5.65a29.78,29.78,0,0,0,0,3.6,2.09,2.09,0,0,0,.9,1.25c1.87,1.3,3.8,2.51,5.71,3.76a4.26,4.26,0,0,1,1.22,1.11c-3.4.88-5-2.49-7.9-3.19,0,.9,0,1.75,0,2.59s.3,1.7-.93,1.72-.79-1-.79-1.6q-.18-18.66-.28-37.3c0-4.4-.06-8.81-.06-13.21A19.27,19.27,0,0,1,381.89,59.62Z"/><path class="cls-32" d="M392.26,102.54a23.83,23.83,0,0,1-3.22-2.16c-1.65-1.1-3.31-2.18-5.14-3.39a10.85,10.85,0,0,0-.13,2.08c.1.81.1,2,.62,2.33,3.16,2.24,6.45,4.29,9.88,6.53C394.73,105.5,394.68,103.64,392.26,102.54Z"/><path class="cls-33" d="M385.84,96.2c2.08,1.15,4,2.57,6,3.85.75.49,1.54.93,2.37,1.42.62-3.11.46-3.52-1.9-5.09l-6-4c-.74-.5-1.5-1-2.48-1.59a15.25,15.25,0,0,1,0,1.83C383.53,94.32,384.3,95.35,385.84,96.2Z"/><path class="cls-34" d="M386.65,90.44a12.83,12.83,0,0,1,1.82,1.18l5.73,3.65c.64-3.32.52-3.58-2.07-5.22-.65-.41-1.27-.88-1.92-1.31l-6.1-4C383.19,87.55,384.12,89.35,386.65,90.44Z"/><path class="cls-35" d="M384.47,82.65c3.14,2.17,6.37,4.2,9.73,6.37.54-2.42.29-4.23-2.07-5.18a6.61,6.61,0,0,1-1-.7l-7.19-4.75a19.3,19.3,0,0,0,0,2.34C384,81.4,384,82.36,384.47,82.65Z"/><path class="cls-36" d="M384.77,76.54c3.07,2.08,6.19,4.07,9.43,6.19.49-2.41.07-4.13-2.12-5.22a36.62,36.62,0,0,1-3.79-2.4c-1.35-.89-2.68-1.8-4.39-2.94C384.29,73.93,383.22,75.5,384.77,76.54Z"/><path class="cls-37" d="M385.91,71c.91.58,1.81,1.2,2.72,1.78,1.77,1.15,3.54,2.28,5.45,3.5.53-2.29.18-3.84-1.89-4.88a45,45,0,0,1-4.25-2.85c-1.17-.77-2.38-1.48-3.65-2.26C383.61,69.24,383.77,69.66,385.91,71Z"/><path class="cls-38" d="M380,48.26a4.83,4.83,0,0,1,3,0,17.55,17.55,0,0,0,21.42-9.18c3.59-7.14.88-16.43-6.21-21.06a3,3,0,0,1-1.49-2.46,17.36,17.36,0,0,0-34.61,2.29,3.17,3.17,0,0,1-1,2.67c-4.53,4.48-6.24,9.94-4.71,16C359,46.94,369.8,52.15,380,48.26Zm2.06-3.33a1.88,1.88,0,0,1-1.42.13c-3.92-2.06-7.47-7.31-7.13-12a18.6,18.6,0,0,0,14.88-1.44,14.33,14.33,0,0,1-4.74,12A6.9,6.9,0,0,1,382.08,44.93Zm-8.57-15.67A14.62,14.62,0,0,1,379.62,20a2,2,0,0,1,1.78,0,14.37,14.37,0,0,1,6.54,8.45c.28.91-.11,1.31-.82,1.7a16.87,16.87,0,0,1-7.8,2.1c-1.43-.26-2.84-.57-4.28-.76S373.22,30.61,373.51,29.26Zm-2.12.41a11.79,11.79,0,0,1-5.4-5.49c-2.14-4.29-2-4.17,2.35-5.81,3-1.12,7.34-1,9.64.22A18.09,18.09,0,0,0,371.39,29.67Zm11.27-11.46a28.69,28.69,0,0,1,3.66-1,13.83,13.83,0,0,1,7.21.74c.47.21,1.07,1,1,1.38a13.94,13.94,0,0,1-4,8.09c-.1.09-.29.09-.69.21A19.16,19.16,0,0,0,382.66,18.21Zm20.65,9.67c1.92,6.62-.43,12.83-6.15,16.83-4.12,2.88-11.05,3.2-13.27,1.44.41-.44.81-.89,1.23-1.3a16.82,16.82,0,0,0,5.4-13.53,2.07,2.07,0,0,1,.41-1.51,17.57,17.57,0,0,0,5.7-10.36A13.6,13.6,0,0,1,403.31,27.88ZM371.64,4.14a15.57,15.57,0,0,1,17,.91,14.33,14.33,0,0,1,6,11.07c-3.63-1.13-7.13-1.63-10.39-.37-2.85,1.1-5.39.81-8.21.14a15.45,15.45,0,0,0-10.16,1.3c-.33.15-.66.3-1,.42a2,2,0,0,1-.56,0C363.57,12.75,366.73,7,371.64,4.14ZM362.55,22a31.14,31.14,0,0,0,2.81,4.81,59.84,59.84,0,0,0,4.88,4.66c.35.33.85.71.89,1.1a17.76,17.76,0,0,0,7.06,13.13,3,3,0,0,1,.51.7c-3.32,2.39-12.49,2-17.51-4.32C356.34,36,356.92,26.47,362.55,22Z"/><path class="cls-39" d="M9.55,74.57A2.83,2.83,0,0,0,11.38,74a2.14,2.14,0,0,0,.77-1.77,2.18,2.18,0,0,0-.75-1.72,2.73,2.73,0,0,0-1.85-.65,2.72,2.72,0,0,0-1.84.65A2.18,2.18,0,0,0,7,72.18,2.14,2.14,0,0,0,7.73,74,2.83,2.83,0,0,0,9.55,74.57Z"/><path class="cls-39" d="M19.56,77H14.91v1.66h-.67a14.85,14.85,0,0,0-4.8.72,10.57,10.57,0,0,0-3.57,2,8.17,8.17,0,0,0-2.23,3,9,9,0,0,0-.77,3.73,9.52,9.52,0,0,0,.85,4.13,8,8,0,0,0,2.36,2.92,10.25,10.25,0,0,0,3.59,1.73,17.28,17.28,0,0,0,4.57.57h5.32ZM14.91,92.75h-2a6.73,6.73,0,0,1-2-.3,5.18,5.18,0,0,1-1.71-.9,4.29,4.29,0,0,1-1.64-3.49,4.15,4.15,0,0,1,.48-2,4.67,4.67,0,0,1,1.28-1.48,6.17,6.17,0,0,1,1.79-.91,6.77,6.77,0,0,1,2-.32h1.8Z"/><path class="cls-39" d="M16.77,74.57A2.83,2.83,0,0,0,18.6,74a2.14,2.14,0,0,0,.76-1.77,2.19,2.19,0,0,0-.73-1.72,2.72,2.72,0,0,0-1.86-.65,2.75,2.75,0,0,0-1.85.65,2.2,2.2,0,0,0-.74,1.72A2.14,2.14,0,0,0,14.94,74,2.83,2.83,0,0,0,16.77,74.57Z"/><path class="cls-39" d="M31.76,97.66V83.3H27.11V98.21a3.12,3.12,0,0,1-.55,2.05,2.51,2.51,0,0,1-1.95.63,8.77,8.77,0,0,1-1-.06,11.06,11.06,0,0,1-1.16-.19l.33,3.83a7.38,7.38,0,0,0,1.07.18,10.91,10.91,0,0,0,1.29.07,10.07,10.07,0,0,0,3.06-.41A4.74,4.74,0,0,0,30.23,103a5.23,5.23,0,0,0,1.16-2.19A11.9,11.9,0,0,0,31.76,97.66Z"/><path class="cls-39" d="M88.88,71.59a2.29,2.29,0,0,0-.78,1.78,2.22,2.22,0,0,0,.82,1.86,3.17,3.17,0,0,0,3.82,0,2.19,2.19,0,0,0,.82-1.86,2.29,2.29,0,0,0-.78-1.78,3.14,3.14,0,0,0-3.9,0Z"/><path class="cls-39" d="M130,97.41V75.1h2.16V70.45h-6.82v22.3H119c.07-.33.12-.67.17-1a9.73,9.73,0,0,0,.06-1.1,10.29,10.29,0,0,0-.78-4,9.81,9.81,0,0,0-2.16-3.22,10.27,10.27,0,0,0-3.22-2.15,10,10,0,0,0-3.94-.78,9.56,9.56,0,0,0-3.88.8,9.93,9.93,0,0,0-3.15,2.18A10.27,10.27,0,0,0,100,86.65a10.11,10.11,0,0,0-.78,4,9.79,9.79,0,0,0,.05,1.1,5.68,5.68,0,0,0,.18,1H93.29V78.69H88.64V92.75H81.56V89.53a15.75,15.75,0,0,0-.44-3.81,6.21,6.21,0,0,0-1.49-2.87,7.3,7.3,0,0,0-3-1.92,12.42,12.42,0,0,0-4-.58H62.57V78.69H57.92V92.75H52.2l0-14.06H47a15.45,15.45,0,0,0-4.58.65,11.07,11.07,0,0,0-3.61,1.84,8.5,8.5,0,0,0-2.36,2.93A8.85,8.85,0,0,0,35.58,88a9.62,9.62,0,0,0,.88,4.27,7.85,7.85,0,0,0,2.43,2.91,10.28,10.28,0,0,0,3.62,1.66,17.78,17.78,0,0,0,4.47.54h.54a3.57,3.57,0,0,1-.42,1.39,2.18,2.18,0,0,1-.83.82A3.41,3.41,0,0,1,45,100a15.67,15.67,0,0,1-4-.11,20,20,0,0,1-2.53-.64l.34,4.69,1.36.37,1.15.23a9.89,9.89,0,0,0,1.11.15c.38,0,.79,0,1.23,0a12,12,0,0,0,3.79-.53,6.91,6.91,0,0,0,2.56-1.5,6.24,6.24,0,0,0,1.5-2.31,11.33,11.33,0,0,0,.63-3H101.9a10.62,10.62,0,0,0,3.26,2.31,9.58,9.58,0,0,0,4,.84,10,10,0,0,0,4.07-.83,9.91,9.91,0,0,0,3.31-2.32H130ZM47.58,92.75h-2a7.17,7.17,0,0,1-2.11-.3,5,5,0,0,1-1.71-.9,4.16,4.16,0,0,1-1.15-1.47,4.87,4.87,0,0,1-.41-2,4.13,4.13,0,0,1,.45-1.93,4.6,4.6,0,0,1,1.19-1.48,5.46,5.46,0,0,1,1.73-.94,6.24,6.24,0,0,1,2-.34h2Zm29.32,0H62.57V85H73.18a3.56,3.56,0,0,1,1.64.37,3.1,3.1,0,0,1,1.18.93,3.74,3.74,0,0,1,.69,1.31,6.51,6.51,0,0,1,.21,1.75Zm37.28,0A5,5,0,0,1,113,94.4a5.62,5.62,0,0,1-3.87,1.51,5.19,5.19,0,0,1-4.89-3.24,5.5,5.5,0,0,1-.4-2.11,5.57,5.57,0,0,1,.4-2.13,5.44,5.44,0,0,1,1.1-1.73A5.17,5.17,0,0,1,107,85.54a5.1,5.1,0,0,1,2.13-.43,5.58,5.58,0,0,1,2.19.41,5.29,5.29,0,0,1,1.73,1.15,5.09,5.09,0,0,1,1.13,1.73,5.85,5.85,0,0,1,.4,2.16A5.38,5.38,0,0,1,114.18,92.7Z"/><rect class="cls-39" x="137.8" y="70.45" width="4.65" height="26.96"/><path class="cls-39" d="M175.06,101.56V81.08h-4.65V96.91h-2.66a13.62,13.62,0,0,1-2.79-.27,4.7,4.7,0,0,1-2.16-1,3.55,3.55,0,0,1-1.08-1.71,8.88,8.88,0,0,1-.32-2.54V81.08h-4.65V92a14.48,14.48,0,0,0,.5,3.88,6.29,6.29,0,0,0,1.72,3,9.42,9.42,0,0,0,1.62,1.24,8.4,8.4,0,0,0,1.87.85,12.41,12.41,0,0,0,2.25.48,22.22,22.22,0,0,0,2.71.15Z"/><path class="cls-39" d="M166.05,73.17a2.87,2.87,0,0,0-1.94.68,2.26,2.26,0,0,0-.78,1.78,2.21,2.21,0,0,0,.81,1.86,3,3,0,0,0,1.91.64,3,3,0,0,0,1.91-.64,2.19,2.19,0,0,0,.82-1.86,2.26,2.26,0,0,0-.78-1.78A2.88,2.88,0,0,0,166.05,73.17Z"/><path class="cls-39" d="M250.45,88.9a4.46,4.46,0,0,1-1,3,3.78,3.78,0,0,1-3,1.13,4.08,4.08,0,0,1-3-1.09,4.72,4.72,0,0,1-1.18-3.39V80.35h-4.66V88.6a4.43,4.43,0,0,1-.4,2,3.4,3.4,0,0,1-1,1.28,3.75,3.75,0,0,1-1.43.67,6.77,6.77,0,0,1-1.52.18h-3.39V80.35h-4.65v12.4H215V89.39a16.19,16.19,0,0,0-.43-3.8,6.4,6.4,0,0,0-1.5-2.88,7.38,7.38,0,0,0-3-1.91,12.13,12.13,0,0,0-3.95-.58h-9.81l5.15-9.77h-5l-5.39,9.77a8.31,8.31,0,0,0,.52,2.64,7.46,7.46,0,0,0,1.08,2h13.89a3.63,3.63,0,0,1,1.65.37,3.18,3.18,0,0,1,1.18.93,3.63,3.63,0,0,1,.68,1.31,6.46,6.46,0,0,1,.22,1.74v3.56h-24.3V70.45h-4.66v27h51.82a8.86,8.86,0,0,0,3.63-.77,9.31,9.31,0,0,0,3-2.09,6,6,0,0,0,1.31,1.54,6.43,6.43,0,0,0,1.62,1,7.36,7.36,0,0,0,1.79.52,11.85,11.85,0,0,0,1.89.15q4.36,0,6.49-2.31c1.42-1.54,2.12-3.92,2.12-7.13V76.36h-4.62Z"/><path class="cls-39" d="M264.62,104.69h1.66v-1.5h-1.4a1.86,1.86,0,0,1-1.4-.43,1.78,1.78,0,0,1-.39-1.23h4.25V99h-6.91v1.53a4,4,0,0,0,1.11,3.2A4.66,4.66,0,0,0,264.62,104.69Z"/><rect class="cls-39" x="261.59" y="70.45" width="4.65" height="26.96"/><polygon class="cls-39" points="2.53 130.19 10.14 130.19 10.14 128.1 2.53 128.1 2.53 121.91 10.58 121.91 10.58 119.79 0 119.79 0 139.38 11.02 139.38 11.02 137.26 2.53 137.26 2.53 130.19"/><path class="cls-39" d="M21.16,128.27c-2.7-1-3.9-1.94-3.9-3.77,0-1.34,1-2.94,3.69-2.94a7.73,7.73,0,0,1,3.72.93l.7-2.06a8.81,8.81,0,0,0-4.33-1c-3.81,0-6.33,2.26-6.33,5.32,0,2.76,2,4.41,5.17,5.55,2.64,1,3.69,2.06,3.69,3.89,0,2-1.51,3.35-4.1,3.35a9,9,0,0,1-4.53-1.28l-.64,2.12a10.08,10.08,0,0,0,5,1.25c4.62,0,6.86-2.62,6.86-5.64S24.47,129.55,21.16,128.27Z"/><path class="cls-39" d="M43.88,119.79H40.75l-6,7.35c-.5.64-1,1.34-1.54,2.09h-.09v-9.44H30.6v19.59h2.53v-7.47L35,129.76l6.45,9.62h3L36.79,128.1Z"/><path class="cls-39" d="M52.8,119.79l-6.65,19.59h2.61l2-6.16h7l2.09,6.16h2.7l-6.68-19.59Zm-1.48,11.45,1.92-5.67c.38-1.19.7-2.38,1-3.55h.06c.29,1.14.58,2.3,1,3.58l1.92,5.64Z"/><path class="cls-39" d="M78.73,128c0,3.06.06,5.44.29,8.06l-.06,0a55.21,55.21,0,0,0-3.52-6.36l-6.27-9.91H66.4v19.59h2.39V131c0-3.26-.06-5.61-.21-8.08l.09,0a63.79,63.79,0,0,0,3.66,6.54l6.22,9.94h2.56V119.79H78.73Z"/><polygon class="cls-39" points="95.61 130.19 103.23 130.19 103.23 128.1 95.61 128.1 95.61 121.91 103.66 121.91 103.66 119.79 93.08 119.79 93.08 139.38 104.1 139.38 104.1 137.26 95.61 137.26 95.61 130.19"/><polygon class="cls-39" points="110.9 119.79 108.37 119.79 108.37 139.38 119.27 139.38 119.27 137.26 110.9 137.26 110.9 119.79"/><path class="cls-39" d="M138.1,119.79l-3.49,9.47c-.87,2.47-1.57,4.62-2.06,6.6h-.09c-.49-2-1.16-4.18-2-6.6l-3.34-9.47h-3.22l-1.37,19.59H125l.53-8.4c.17-2.94.31-6.22.37-8.66h.06c.55,2.32,1.34,4.85,2.27,7.61l3.17,9.33h1.92l3.45-9.5c1-2.71,1.81-5.15,2.48-7.44h.08c0,2.44.15,5.72.29,8.45l.5,8.61h2.47l-1.22-19.59Z"/><path class="cls-39" d="M152.31,119.79l-6.66,19.59h2.62l2-6.16h6.95l2.09,6.16h2.71l-6.69-19.59Zm-1.48,11.45,1.92-5.67c.37-1.19.69-2.38,1-3.55h.06c.29,1.14.58,2.3,1,3.58l1.92,5.64Z"/><path class="cls-39" d="M178.23,128c0,3.06.06,5.44.29,8.06l-.05,0A56.77,56.77,0,0,0,175,129.7l-6.28-9.91h-2.76v19.59h2.38V131c0-3.26-.06-5.61-.2-8.08l.09,0a62,62,0,0,0,3.66,6.54l6.22,9.94h2.56V119.79h-2.39Z"/><path class="cls-39" d="M191.89,128.27c-2.7-1-3.89-1.94-3.89-3.77,0-1.34,1-2.94,3.69-2.94a7.8,7.8,0,0,1,3.72.93l.7-2.06a8.87,8.87,0,0,0-4.33-1c-3.81,0-6.34,2.26-6.34,5.32,0,2.76,2,4.41,5.17,5.55,2.65,1,3.69,2.06,3.69,3.89,0,2-1.51,3.35-4.09,3.35a9,9,0,0,1-4.54-1.28l-.64,2.12a10.11,10.11,0,0,0,5,1.25c4.62,0,6.86-2.62,6.86-5.64S195.21,129.55,191.89,128.27Z"/><path class="cls-39" d="M209.27,119.47c-5.23,0-9.1,4.07-9.1,10.29,0,5.93,3.63,9.94,8.81,9.94,5,0,9.1-3.58,9.1-10.32C218.08,123.57,214.62,119.47,209.27,119.47Zm-.15,18.16c-4,0-6.24-3.75-6.24-7.93s2.09-8.17,6.27-8.17,6.25,4.07,6.25,8C215.4,133.94,213.14,137.63,209.12,137.63Z"/><path class="cls-39" d="M234.21,131.38c0,4.34-1.86,6.25-4.77,6.25-2.62,0-4.56-1.86-4.56-6.25V119.79h-2.56v11.54c0,6.07,3,8.37,7,8.37,4.24,0,7.41-2.47,7.41-8.49V119.79h-2.55Z"/><path class="cls-39" d="M250.51,130.05V130a5.15,5.15,0,0,0,3.69-5,4.87,4.87,0,0,0-1.54-3.72c-1.22-1.1-3-1.6-5.67-1.6a26.45,26.45,0,0,0-4.85.41v19.33h2.53v-8.49h2.38c2.29.09,3.34,1.11,3.92,3.81a25.1,25.1,0,0,0,1.31,4.68h2.62a30.93,30.93,0,0,1-1.52-5.38C252.92,132,252,130.57,250.51,130.05ZM247.25,129h-2.58v-7.15a10.15,10.15,0,0,1,2.5-.23c2.67,0,4.5,1.13,4.5,3.66C251.67,127.49,250,129,247.25,129Z"/><path class="cls-39" d="M267.13,119.79h-3.05l-6.66,19.59H260l2-6.16H269l2.09,6.16h2.71Zm-4.53,11.45,1.91-5.67c.38-1.19.7-2.38,1-3.55h.06c.29,1.14.58,2.3,1,3.58l1.92,5.64Z"/></g></g></svg>